<svg xmlns="http://www.w3.org/2000/svg" width="1200" height="720" viewBox="0 0 1200 720">
<rect x="0" y="0" width="1200" height="720" fill="#f6f2ea"/>
<rect x="24" y="24" width="1152" height="672" rx="24" fill="#fffdf8" stroke="#eadfce"/>
<text x="60" y="78" font-family="Segoe UI, Arial, sans-serif" font-size="30" font-weight="700" fill="#1f2937">Supplier Sales UK 2011</text>
<text x="60" y="108" font-family="Segoe UI, Arial, sans-serif" font-size="16" fill="#6b7280">Top fournisseurs sur le Royaume-Uni en 2011</text>
<text x="164" y="103.0" text-anchor="end" font-family="Segoe UI, Arial, sans-serif" font-size="16" fill="#1f2937">F227</text>
<rect x="180" y="88.0" width="940.00" height="20.00" rx="8" fill="#d8a47f"/>
<text x="1130.00" y="103.00" font-family="Segoe UI, Arial, sans-serif" font-size="15" fill="#1f2937">56.2K</text>
<text x="164" y="139.0" text-anchor="end" font-family="Segoe UI, Arial, sans-serif" font-size="16" fill="#1f2937">F662</text>
<rect x="180" y="124.0" width="674.96" height="20.00" rx="8" fill="#d8a47f"/>
<text x="864.96" y="139.00" font-family="Segoe UI, Arial, sans-serif" font-size="15" fill="#1f2937">40.4K</text>
<text x="164" y="175.0" text-anchor="end" font-family="Segoe UI, Arial, sans-serif" font-size="16" fill="#1f2937">F976</text>
<rect x="180" y="160.0" width="480.65" height="20.00" rx="8" fill="#d8a47f"/>
<text x="670.65" y="175.00" font-family="Segoe UI, Arial, sans-serif" font-size="15" fill="#1f2937">28.7K</text>
<text x="164" y="211.0" text-anchor="end" font-family="Segoe UI, Arial, sans-serif" font-size="16" fill="#1f2937">F849</text>
<rect x="180" y="196.0" width="380.90" height="20.00" rx="8" fill="#d8a47f"/>
<text x="570.90" y="211.00" font-family="Segoe UI, Arial, sans-serif" font-size="15" fill="#1f2937">22.8K</text>
<text x="164" y="247.0" text-anchor="end" font-family="Segoe UI, Arial, sans-serif" font-size="16" fill="#1f2937">F356</text>
<rect x="180" y="232.0" width="325.78" height="20.00" rx="8" fill="#d8a47f"/>
<text x="515.78" y="247.00" font-family="Segoe UI, Arial, sans-serif" font-size="15" fill="#1f2937">19.5K</text>
<text x="164" y="283.0" text-anchor="end" font-family="Segoe UI, Arial, sans-serif" font-size="16" fill="#1f2937">F253</text>
<rect x="180" y="268.0" width="309.62" height="20.00" rx="8" fill="#d8a47f"/>
<text x="499.62" y="283.00" font-family="Segoe UI, Arial, sans-serif" font-size="15" fill="#1f2937">18.5K</text>
<text x="164" y="319.0" text-anchor="end" font-family="Segoe UI, Arial, sans-serif" font-size="16" fill="#1f2937">F631</text>
<rect x="180" y="304.0" width="292.73" height="20.00" rx="8" fill="#d8a47f"/>
<text x="482.73" y="319.00" font-family="Segoe UI, Arial, sans-serif" font-size="15" fill="#1f2937">17.5K</text>
<text x="164" y="355.0" text-anchor="end" font-family="Segoe UI, Arial, sans-serif" font-size="16" fill="#1f2937">F348</text>
<rect x="180" y="340.0" width="287.24" height="20.00" rx="8" fill="#d8a47f"/>
<text x="477.24" y="355.00" font-family="Segoe UI, Arial, sans-serif" font-size="15" fill="#1f2937">17.2K</text>
<text x="164" y="391.0" text-anchor="end" font-family="Segoe UI, Arial, sans-serif" font-size="16" fill="#1f2937">F252</text>
<rect x="180" y="376.0" width="283.92" height="20.00" rx="8" fill="#d8a47f"/>
<text x="473.92" y="391.00" font-family="Segoe UI, Arial, sans-serif" font-size="15" fill="#1f2937">17.0K</text>
<text x="164" y="427.0" text-anchor="end" font-family="Segoe UI, Arial, sans-serif" font-size="16" fill="#1f2937">F770</text>
<rect x="180" y="412.0" width="272.04" height="20.00" rx="8" fill="#d8a47f"/>
<text x="462.04" y="427.00" font-family="Segoe UI, Arial, sans-serif" font-size="15" fill="#1f2937">16.3K</text>
<text x="164" y="463.0" text-anchor="end" font-family="Segoe UI, Arial, sans-serif" font-size="16" fill="#1f2937">F981</text>
<rect x="180" y="448.0" width="270.22" height="20.00" rx="8" fill="#d8a47f"/>
<text x="460.22" y="463.00" font-family="Segoe UI, Arial, sans-serif" font-size="15" fill="#1f2937">16.2K</text>
<text x="164" y="499.0" text-anchor="end" font-family="Segoe UI, Arial, sans-serif" font-size="16" fill="#1f2937">F462</text>
<rect x="180" y="484.0" width="264.85" height="20.00" rx="8" fill="#d8a47f"/>
<text x="454.85" y="499.00" font-family="Segoe UI, Arial, sans-serif" font-size="15" fill="#1f2937">15.8K</text>
<text x="164" y="535.0" text-anchor="end" font-family="Segoe UI, Arial, sans-serif" font-size="16" fill="#1f2937">F461</text>
<rect x="180" y="520.0" width="263.82" height="20.00" rx="8" fill="#d8a47f"/>
<text x="453.82" y="535.00" font-family="Segoe UI, Arial, sans-serif" font-size="15" fill="#1f2937">15.8K</text>
<text x="164" y="571.0" text-anchor="end" font-family="Segoe UI, Arial, sans-serif" font-size="16" fill="#1f2937">F188</text>
<rect x="180" y="556.0" width="262.35" height="20.00" rx="8" fill="#d8a47f"/>
<text x="452.35" y="571.00" font-family="Segoe UI, Arial, sans-serif" font-size="15" fill="#1f2937">15.7K</text>
<text x="164" y="607.0" text-anchor="end" font-family="Segoe UI, Arial, sans-serif" font-size="16" fill="#1f2937">F514</text>
<rect x="180" y="592.0" width="239.54" height="20.00" rx="8" fill="#d8a47f"/>
<text x="429.54" y="607.00" font-family="Segoe UI, Arial, sans-serif" font-size="15" fill="#1f2937">14.3K</text>
</svg>